# xmcd CD database file
#
# Track frame offsets:
#	150
#	33749
#	83751
#	117463
#	141458
#	183298
#	210777
#	239905
#	263470
#	300940
#	325301
#
# Disc length: 4799 seconds
#
# Revision: 0
# Processed by: cddbd v1.5.2PL0 Copyright (c) Steve Scherf et al.
# Submitted via: CDex 1.70beta2
#
DISCID=9512bd0b
DTITLE=Cecil Taylor - Jazz Advance, The World of Cecil Taylor
DYEAR=1958
DGENRE=Jazz
TTITLE0=Bemsha Swing
TTITLE1=Charge 'Em Blues
TTITLE2=Azure
TTITLE3=Song
TTITLE4=You'd Be So Nice To Come Home To
TTITLE5=Rick Kick Shaw
TTITLE6=Luyah! The Glorious Step
TTITLE7=African Violets
TTITLE8=Of What
TTITLE9=Wallering
TTITLE10=Toll
EXTD=YEAR: 1958
EXTT0=
EXTT1=
EXTT2=
EXTT3=
EXTT4=
EXTT5=
EXTT6=
EXTT7=
EXTT8=
EXTT9=
EXTT10=
PLAYORDER=
